<svg width="215" height="56" viewBox="0 0 215 56" fill="none" xmlns="http://www.w3.org/2000/svg">
<path d="M85.0909 48.6023C95.5483 48.6023 102.119 42.4659 102.631 33.4403H92.3523C91.7131 37.6335 88.9517 39.9858 85.2187 39.9858C80.1307 39.9858 76.8324 35.7159 76.8324 28.1989C76.8324 20.7841 80.1562 16.5398 85.2187 16.5398C89.2074 16.5398 91.7642 19.1733 92.3523 23.0852H102.631C102.17 14.0085 95.2926 8.05114 85.0398 8.05114C73.125 8.05114 65.7614 16.3097 65.7614 28.3523C65.7614 40.2926 72.9972 48.6023 85.0909 48.6023Z" fill="#1A202C"/>
<path d="M120.803 48.5767C126.607 48.5767 130.366 46.0455 132.283 42.3892H132.59V47.8352H142.92V21.3466C142.92 11.9886 134.994 8.05114 126.249 8.05114C116.84 8.05114 110.653 12.5511 109.144 19.7102L119.218 20.5284C119.96 17.9205 122.286 16.0028 126.198 16.0028C129.906 16.0028 132.028 17.8693 132.028 21.0909V21.2443C132.028 23.7756 129.343 24.108 122.516 24.7727C114.744 25.4886 107.763 28.0966 107.763 36.8665C107.763 44.6392 113.312 48.5767 120.803 48.5767ZM123.923 41.0597C120.573 41.0597 118.17 39.5 118.17 36.5085C118.17 33.4403 120.701 31.9318 124.536 31.3949C126.914 31.0625 130.8 30.5 132.104 29.6307V33.7983C132.104 37.9148 128.704 41.0597 123.923 41.0597Z" fill="#1A202C"/>
<path d="M151.37 47.8352H162.262V25.6165C162.262 20.7841 165.79 17.4602 170.597 17.4602C172.106 17.4602 174.177 17.7159 175.2 18.0483V8.38352C174.228 8.15341 172.873 8 171.773 8C167.376 8 163.771 10.5568 162.339 15.4148H161.93V8.5625H151.37V47.8352Z" fill="#1A202C"/>
<path d="M196.901 48.6023C206.616 48.6023 213.162 43.8722 214.696 36.5852L204.622 35.9205C203.523 38.9119 200.71 40.4716 197.08 40.4716C191.634 40.4716 188.182 36.8665 188.182 31.0114V30.9858H214.926V27.9943C214.926 14.6477 206.847 8.05114 196.466 8.05114C184.909 8.05114 177.418 16.2585 177.418 28.3778C177.418 40.8295 184.807 48.6023 196.901 48.6023ZM188.182 24.2358C188.412 19.7614 191.813 16.1818 196.645 16.1818C201.375 16.1818 204.648 19.5568 204.673 24.2358H188.182Z" fill="#1A202C"/>
<path d="M49 46.6667H53.6667V51.3333H2.33333V46.6667H7V7C7 6.38116 7.24583 5.78767 7.68342 5.35008C8.121 4.9125 8.7145 4.66666 9.33333 4.66666H46.6667C47.2855 4.66666 47.879 4.9125 48.3166 5.35008C48.7542 5.78767 49 6.38116 49 7V46.6667ZM25.6667 18.6667H21V23.3333H25.6667V28H30.3333V23.3333H35V18.6667H30.3333V14H25.6667V18.6667ZM32.6667 46.6667H37.3333V32.6667H18.6667V46.6667H23.3333V37.3333H32.6667V46.6667Z" fill="#718096"/>
</svg>
