<svg width="215" height="56" viewBox="0 0 215 56" fill="none" xmlns="http://www.w3.org/2000/svg">
<path d="M85.0909 47.767C95.5483 47.767 102.119 41.6307 102.631 32.6051H92.3523C91.7131 36.7983 88.9517 39.1506 85.2187 39.1506C80.1307 39.1506 76.8324 34.8807 76.8324 27.3636C76.8324 19.9489 80.1562 15.7045 85.2187 15.7045C89.2074 15.7045 91.7642 18.3381 92.3523 22.25H102.631C102.17 13.1733 95.2926 7.21591 85.0398 7.21591C73.125 7.21591 65.7614 15.4744 65.7614 27.517C65.7614 39.4574 72.9971 47.767 85.0909 47.767Z" fill="#E2E8F0"/>
<path d="M120.803 47.7415C126.607 47.7415 130.366 45.2102 132.283 41.554H132.59V47H142.92V20.5114C142.92 11.1534 134.994 7.21591 126.249 7.21591C116.84 7.21591 110.653 11.7159 109.144 18.875L119.218 19.6932C119.96 17.0852 122.286 15.1676 126.198 15.1676C129.906 15.1676 132.028 17.0341 132.028 20.2557V20.4091C132.028 22.9403 129.343 23.2727 122.516 23.9375C114.744 24.6534 107.763 27.2614 107.763 36.0312C107.763 43.804 113.312 47.7415 120.803 47.7415ZM123.923 40.2244C120.573 40.2244 118.17 38.6648 118.17 35.6733C118.17 32.6051 120.701 31.0966 124.536 30.5597C126.914 30.2273 130.8 29.6648 132.104 28.7955V32.9631C132.104 37.0795 128.704 40.2244 123.923 40.2244Z" fill="#E2E8F0"/>
<path d="M151.37 47H162.262V24.7812C162.262 19.9489 165.79 16.625 170.597 16.625C172.106 16.625 174.177 16.8807 175.2 17.2131V7.54829C174.228 7.31818 172.873 7.16477 171.773 7.16477C167.376 7.16477 163.771 9.72159 162.339 14.5795H161.93V7.72727H151.37V47Z" fill="#E2E8F0"/>
<path d="M196.901 47.767C206.616 47.767 213.162 43.0369 214.696 35.75L204.622 35.0852C203.523 38.0767 200.71 39.6364 197.08 39.6364C191.634 39.6364 188.182 36.0312 188.182 30.1761V30.1506H214.926V27.1591C214.926 13.8125 206.847 7.21591 196.466 7.21591C184.909 7.21591 177.418 15.4233 177.418 27.5426C177.418 39.9943 184.807 47.767 196.901 47.767ZM188.182 23.4006C188.412 18.9261 191.812 15.3466 196.645 15.3466C201.375 15.3466 204.648 18.7216 204.673 23.4006H188.182Z" fill="#E2E8F0"/>
<path d="M49 46.6667H53.6666V51.3333H2.33331V46.6667H6.99998V7C6.99998 6.38116 7.24581 5.78767 7.6834 5.35008C8.12098 4.9125 8.71447 4.66666 9.33331 4.66666H46.6666C47.2855 4.66666 47.879 4.9125 48.3166 5.35008C48.7541 5.78767 49 6.38116 49 7V46.6667ZM25.6666 18.6667H21V23.3333H25.6666V28H30.3333V23.3333H35V18.6667H30.3333V14H25.6666V18.6667ZM32.6666 46.6667H37.3333V32.6667H18.6666V46.6667H23.3333V37.3333H32.6666V46.6667Z" fill="#E2E8F0"/>
</svg>
